<?xml version="1.0" standalone="no"?>
<!DOCTYPE svg PUBLIC "-//W3C//DTD SVG 20010904//EN"
 "http://www.w3.org/TR/2001/REC-SVG-20010904/DTD/svg10.dtd">
<svg version="1.0" xmlns="http://www.w3.org/2000/svg"
 width="222.000000pt" height="222.000000pt" viewBox="0 0 222.000000 222.000000"
 preserveAspectRatio="xMidYMid meet">
<metadata>
Created by potrace 1.14, written by Peter Selinger 2001-2017
</metadata>
<g transform="translate(0.000000,222.000000) scale(0.100000,-0.100000)"
fill="#000000" stroke="none">
<path d="M0 1110 l0 -1110 1110 0 1110 0 0 1110 0 1110 -1110 0 -1110 0 0
-1110z m1337 730 c25 -11 51 -33 63 -52 19 -32 20 -49 20 -573 0 -580 -1 -589
-53 -691 -69 -136 -243 -211 -431 -185 -189 27 -294 101 -304 213 -3 44 0 59
20 88 47 69 96 73 213 18 117 -54 193 -47 227 22 16 32 18 79 18 535 0 298 4
514 10 536 17 61 80 106 150 108 14 0 44 -8 67 -19z"/>
</g>
</svg>
